<mxfile host="app.diagrams.net" agent="Mozilla/5.0 (Windows NT 10.0; Win64; x64) AppleWebKit/537.36 (KHTML, like Gecko) Chrome/130.0.0.0 Safari/537.36" version="24.8.3" pages="8">
  <diagram name="Page-1" id="7xsKH6pPMwgzXLg-aELs">
    <mxGraphModel dx="880" dy="518" grid="1" gridSize="10" guides="1" tooltips="1" connect="1" arrows="1" fold="1" page="1" pageScale="1" pageWidth="850" pageHeight="1100" math="0" shadow="0">
      <root>
        <mxCell id="0" />
        <mxCell id="1" parent="0" />
        <mxCell id="hEX6vRJ63KsdVSKcUMxn-11" value="" style="edgeStyle=orthogonalEdgeStyle;rounded=0;orthogonalLoop=1;jettySize=auto;html=1;" parent="1" source="hEX6vRJ63KsdVSKcUMxn-1" target="hEX6vRJ63KsdVSKcUMxn-2" edge="1">
          <mxGeometry relative="1" as="geometry" />
        </mxCell>
        <mxCell id="hEX6vRJ63KsdVSKcUMxn-1" value="Start" style="ellipse;whiteSpace=wrap;html=1;" parent="1" vertex="1">
          <mxGeometry x="367.5" y="60" width="165" height="90" as="geometry" />
        </mxCell>
        <mxCell id="hEX6vRJ63KsdVSKcUMxn-3" value="Menunjukkan nilai dari analog potensio" style="shape=parallelogram;perimeter=parallelogramPerimeter;whiteSpace=wrap;html=1;fixedSize=1;" parent="1" vertex="1">
          <mxGeometry x="355" y="320" width="190" height="90" as="geometry" />
        </mxCell>
        <mxCell id="hEX6vRJ63KsdVSKcUMxn-14" value="" style="endArrow=none;html=1;rounded=0;" parent="1" source="hEX6vRJ63KsdVSKcUMxn-2" edge="1">
          <mxGeometry width="50" height="50" relative="1" as="geometry">
            <mxPoint x="410" y="290" as="sourcePoint" />
            <mxPoint x="450" y="230" as="targetPoint" />
          </mxGeometry>
        </mxCell>
        <mxCell id="hEX6vRJ63KsdVSKcUMxn-2" value="Tentukan nilai berdasarkan analog potensio" style="shape=parallelogram;perimeter=parallelogramPerimeter;whiteSpace=wrap;html=1;fixedSize=1;" parent="1" vertex="1">
          <mxGeometry x="360" y="190" width="180" height="90" as="geometry" />
        </mxCell>
        <mxCell id="hEX6vRJ63KsdVSKcUMxn-24" value="" style="endArrow=classic;startArrow=classic;html=1;rounded=0;" parent="1" edge="1">
          <mxGeometry width="50" height="50" relative="1" as="geometry">
            <mxPoint x="450" y="320" as="sourcePoint" />
            <mxPoint x="449.5" y="280" as="targetPoint" />
            <Array as="points" />
          </mxGeometry>
        </mxCell>
      </root>
    </mxGraphModel>
  </diagram>
  <diagram id="P4kOJuHA-Qv2yGfM0axs" name="Page-2">
    <mxGraphModel dx="880" dy="468" grid="1" gridSize="10" guides="1" tooltips="1" connect="1" arrows="1" fold="1" page="1" pageScale="1" pageWidth="850" pageHeight="1100" math="0" shadow="0">
      <root>
        <mxCell id="0" />
        <mxCell id="1" parent="0" />
        <mxCell id="n6y1z-Yo7t-sg9VH4C1c-1" value="" style="edgeStyle=orthogonalEdgeStyle;rounded=0;orthogonalLoop=1;jettySize=auto;html=1;" edge="1" source="n6y1z-Yo7t-sg9VH4C1c-2" target="n6y1z-Yo7t-sg9VH4C1c-5" parent="1">
          <mxGeometry relative="1" as="geometry" />
        </mxCell>
        <mxCell id="n6y1z-Yo7t-sg9VH4C1c-2" value="Start" style="ellipse;whiteSpace=wrap;html=1;" vertex="1" parent="1">
          <mxGeometry x="342.5" y="50" width="165" height="90" as="geometry" />
        </mxCell>
        <mxCell id="n6y1z-Yo7t-sg9VH4C1c-3" value="Menampilkan nilai dari analog potensio" style="shape=parallelogram;perimeter=parallelogramPerimeter;whiteSpace=wrap;html=1;fixedSize=1;" vertex="1" parent="1">
          <mxGeometry x="330" y="310" width="190" height="90" as="geometry" />
        </mxCell>
        <mxCell id="n6y1z-Yo7t-sg9VH4C1c-4" value="" style="endArrow=none;html=1;rounded=0;" edge="1" source="n6y1z-Yo7t-sg9VH4C1c-5" parent="1">
          <mxGeometry width="50" height="50" relative="1" as="geometry">
            <mxPoint x="385" y="280" as="sourcePoint" />
            <mxPoint x="425" y="220" as="targetPoint" />
          </mxGeometry>
        </mxCell>
        <mxCell id="n6y1z-Yo7t-sg9VH4C1c-5" value="Tentukan nilai voltage berdasarkan analog potensio" style="shape=parallelogram;perimeter=parallelogramPerimeter;whiteSpace=wrap;html=1;fixedSize=1;" vertex="1" parent="1">
          <mxGeometry x="335" y="180" width="180" height="90" as="geometry" />
        </mxCell>
        <mxCell id="n6y1z-Yo7t-sg9VH4C1c-6" value="" style="endArrow=classic;startArrow=classic;html=1;rounded=0;" edge="1" parent="1">
          <mxGeometry width="50" height="50" relative="1" as="geometry">
            <mxPoint x="425" y="310" as="sourcePoint" />
            <mxPoint x="424.5" y="270" as="targetPoint" />
            <Array as="points" />
          </mxGeometry>
        </mxCell>
      </root>
    </mxGraphModel>
  </diagram>
  <diagram id="WOu5z1Ee6XybZ4AOHJIU" name="Page-3">
    <mxGraphModel dx="197" dy="476" grid="1" gridSize="10" guides="1" tooltips="1" connect="1" arrows="1" fold="1" page="1" pageScale="1" pageWidth="850" pageHeight="1100" math="0" shadow="0">
      <root>
        <mxCell id="0" />
        <mxCell id="1" parent="0" />
        <mxCell id="LO2GCd7thXTgHZh84h_5-7" value="" style="edgeStyle=orthogonalEdgeStyle;rounded=0;orthogonalLoop=1;jettySize=auto;html=1;" parent="1" source="LO2GCd7thXTgHZh84h_5-1" target="LO2GCd7thXTgHZh84h_5-2" edge="1">
          <mxGeometry relative="1" as="geometry" />
        </mxCell>
        <mxCell id="LO2GCd7thXTgHZh84h_5-1" value="Start" style="ellipse;whiteSpace=wrap;html=1;" parent="1" vertex="1">
          <mxGeometry x="370" y="70" width="140" height="90" as="geometry" />
        </mxCell>
        <mxCell id="LO2GCd7thXTgHZh84h_5-6" style="edgeStyle=orthogonalEdgeStyle;rounded=0;orthogonalLoop=1;jettySize=auto;html=1;exitX=0.5;exitY=1;exitDx=0;exitDy=0;entryX=0.5;entryY=0;entryDx=0;entryDy=0;" parent="1" source="LO2GCd7thXTgHZh84h_5-2" target="LO2GCd7thXTgHZh84h_5-3" edge="1">
          <mxGeometry relative="1" as="geometry" />
        </mxCell>
        <mxCell id="LO2GCd7thXTgHZh84h_5-2" value="Pilih nilai pada analog&amp;nbsp;&lt;div&gt;potensio (0-1240)&lt;/div&gt;" style="shape=parallelogram;perimeter=parallelogramPerimeter;whiteSpace=wrap;html=1;fixedSize=1;" parent="1" vertex="1">
          <mxGeometry x="350" y="200" width="180" height="90" as="geometry" />
        </mxCell>
        <mxCell id="LO2GCd7thXTgHZh84h_5-3" value="Ubah nilai analog menjadi PWM (Voltage) (0-255)" style="rounded=0;whiteSpace=wrap;html=1;" parent="1" vertex="1">
          <mxGeometry x="360" y="330" width="160" height="90" as="geometry" />
        </mxCell>
        <mxCell id="LO2GCd7thXTgHZh84h_5-4" value="Tampilkan nilai voltage potensio" style="shape=parallelogram;perimeter=parallelogramPerimeter;whiteSpace=wrap;html=1;fixedSize=1;" parent="1" vertex="1">
          <mxGeometry x="350" y="460" width="170" height="80" as="geometry" />
        </mxCell>
        <mxCell id="LO2GCd7thXTgHZh84h_5-5" style="edgeStyle=orthogonalEdgeStyle;rounded=0;orthogonalLoop=1;jettySize=auto;html=1;exitX=0.5;exitY=1;exitDx=0;exitDy=0;entryX=0.541;entryY=-0.037;entryDx=0;entryDy=0;entryPerimeter=0;" parent="1" source="LO2GCd7thXTgHZh84h_5-3" target="LO2GCd7thXTgHZh84h_5-4" edge="1">
          <mxGeometry relative="1" as="geometry" />
        </mxCell>
        <mxCell id="LO2GCd7thXTgHZh84h_5-13" value="" style="endArrow=none;html=1;rounded=0;" parent="1" edge="1">
          <mxGeometry width="50" height="50" relative="1" as="geometry">
            <mxPoint x="510" y="510" as="sourcePoint" />
            <mxPoint x="590" y="510" as="targetPoint" />
          </mxGeometry>
        </mxCell>
        <mxCell id="LO2GCd7thXTgHZh84h_5-14" value="" style="endArrow=none;html=1;rounded=0;" parent="1" edge="1">
          <mxGeometry width="50" height="50" relative="1" as="geometry">
            <mxPoint x="590.0033333333332" y="510" as="sourcePoint" />
            <mxPoint x="590" y="240" as="targetPoint" />
          </mxGeometry>
        </mxCell>
        <mxCell id="LO2GCd7thXTgHZh84h_5-15" value="" style="endArrow=classic;html=1;rounded=0;" parent="1" edge="1">
          <mxGeometry width="50" height="50" relative="1" as="geometry">
            <mxPoint x="590" y="240" as="sourcePoint" />
            <mxPoint x="520" y="240" as="targetPoint" />
          </mxGeometry>
        </mxCell>
      </root>
    </mxGraphModel>
  </diagram>
  <diagram id="WzlIhdNzlnu4qb8vGgma" name="Page-4">
    <mxGraphModel dx="880" dy="468" grid="1" gridSize="10" guides="1" tooltips="1" connect="1" arrows="1" fold="1" page="1" pageScale="1" pageWidth="850" pageHeight="1100" math="0" shadow="0">
      <root>
        <mxCell id="0" />
        <mxCell id="1" parent="0" />
        <mxCell id="aYpGiaVqw2s0bX2Neu3e-1" value="" style="edgeStyle=orthogonalEdgeStyle;rounded=0;orthogonalLoop=1;jettySize=auto;html=1;" edge="1" parent="1" source="aYpGiaVqw2s0bX2Neu3e-2" target="aYpGiaVqw2s0bX2Neu3e-4">
          <mxGeometry relative="1" as="geometry" />
        </mxCell>
        <mxCell id="aYpGiaVqw2s0bX2Neu3e-2" value="Start" style="ellipse;whiteSpace=wrap;html=1;" vertex="1" parent="1">
          <mxGeometry x="370" y="70" width="140" height="90" as="geometry" />
        </mxCell>
        <mxCell id="aYpGiaVqw2s0bX2Neu3e-3" style="edgeStyle=orthogonalEdgeStyle;rounded=0;orthogonalLoop=1;jettySize=auto;html=1;exitX=0.5;exitY=1;exitDx=0;exitDy=0;entryX=0.5;entryY=0;entryDx=0;entryDy=0;" edge="1" parent="1" source="aYpGiaVqw2s0bX2Neu3e-4" target="aYpGiaVqw2s0bX2Neu3e-5">
          <mxGeometry relative="1" as="geometry" />
        </mxCell>
        <mxCell id="aYpGiaVqw2s0bX2Neu3e-4" value="Pilih nilai pada analog&amp;nbsp;&lt;div&gt;potensio (0-1240)&lt;/div&gt;" style="shape=parallelogram;perimeter=parallelogramPerimeter;whiteSpace=wrap;html=1;fixedSize=1;" vertex="1" parent="1">
          <mxGeometry x="350" y="200" width="180" height="90" as="geometry" />
        </mxCell>
        <mxCell id="aYpGiaVqw2s0bX2Neu3e-5" value="Ubah nilai analog menjadi nilaai sudut (Voltage) (0-255)" style="rounded=0;whiteSpace=wrap;html=1;" vertex="1" parent="1">
          <mxGeometry x="360" y="330" width="160" height="90" as="geometry" />
        </mxCell>
        <mxCell id="aYpGiaVqw2s0bX2Neu3e-6" value="Tampilkan nilai sudut&amp;nbsp;&lt;div&gt;ke servo&lt;/div&gt;" style="shape=parallelogram;perimeter=parallelogramPerimeter;whiteSpace=wrap;html=1;fixedSize=1;" vertex="1" parent="1">
          <mxGeometry x="350" y="460" width="170" height="80" as="geometry" />
        </mxCell>
        <mxCell id="aYpGiaVqw2s0bX2Neu3e-7" style="edgeStyle=orthogonalEdgeStyle;rounded=0;orthogonalLoop=1;jettySize=auto;html=1;exitX=0.5;exitY=1;exitDx=0;exitDy=0;entryX=0.541;entryY=-0.037;entryDx=0;entryDy=0;entryPerimeter=0;" edge="1" parent="1" source="aYpGiaVqw2s0bX2Neu3e-5" target="aYpGiaVqw2s0bX2Neu3e-6">
          <mxGeometry relative="1" as="geometry" />
        </mxCell>
        <mxCell id="aYpGiaVqw2s0bX2Neu3e-8" value="" style="endArrow=none;html=1;rounded=0;" edge="1" parent="1">
          <mxGeometry width="50" height="50" relative="1" as="geometry">
            <mxPoint x="510" y="510" as="sourcePoint" />
            <mxPoint x="590" y="510" as="targetPoint" />
          </mxGeometry>
        </mxCell>
        <mxCell id="aYpGiaVqw2s0bX2Neu3e-9" value="" style="endArrow=none;html=1;rounded=0;" edge="1" parent="1">
          <mxGeometry width="50" height="50" relative="1" as="geometry">
            <mxPoint x="590.0033333333332" y="510" as="sourcePoint" />
            <mxPoint x="590" y="240" as="targetPoint" />
          </mxGeometry>
        </mxCell>
        <mxCell id="aYpGiaVqw2s0bX2Neu3e-10" value="" style="endArrow=classic;html=1;rounded=0;" edge="1" parent="1">
          <mxGeometry width="50" height="50" relative="1" as="geometry">
            <mxPoint x="590" y="240" as="sourcePoint" />
            <mxPoint x="520" y="240" as="targetPoint" />
          </mxGeometry>
        </mxCell>
      </root>
    </mxGraphModel>
  </diagram>
  <diagram id="83VCnpNajWrUhug65tjm" name="Page-5">
    <mxGraphModel dx="880" dy="468" grid="1" gridSize="10" guides="1" tooltips="1" connect="1" arrows="1" fold="1" page="1" pageScale="1" pageWidth="850" pageHeight="1100" math="0" shadow="0">
      <root>
        <mxCell id="0" />
        <mxCell id="1" parent="0" />
      </root>
    </mxGraphModel>
  </diagram>
  <diagram id="vIIB17qesLdT2yFIIE_M" name="Page-6">
    <mxGraphModel dx="1600" dy="942" grid="1" gridSize="10" guides="1" tooltips="1" connect="1" arrows="1" fold="1" page="1" pageScale="1" pageWidth="850" pageHeight="1100" math="0" shadow="0">
      <root>
        <mxCell id="0" />
        <mxCell id="1" parent="0" />
        <mxCell id="eRvDTjzg-Syd29gc3DkY-22" value="Mulai" style="rounded=1;arcSize=40;strokeWidth=2" vertex="1" parent="1">
          <mxGeometry x="281" y="430" width="69" height="49" as="geometry" />
        </mxCell>
        <mxCell id="eRvDTjzg-Syd29gc3DkY-23" value="Inisialisasi Serial 9600" style="rounded=1;arcSize=40;strokeWidth=2" vertex="1" parent="1">
          <mxGeometry x="223" y="529" width="187" height="49" as="geometry" />
        </mxCell>
        <mxCell id="eRvDTjzg-Syd29gc3DkY-24" value="Inisialisasi Sensor DHT" style="rounded=1;arcSize=40;strokeWidth=2" vertex="1" parent="1">
          <mxGeometry x="221" y="628" width="189" height="49" as="geometry" />
        </mxCell>
        <mxCell id="eRvDTjzg-Syd29gc3DkY-25" value="Loop" style="rhombus;strokeWidth=2;whiteSpace=wrap;" vertex="1" parent="1">
          <mxGeometry x="274" y="727" width="83" height="83" as="geometry" />
        </mxCell>
        <mxCell id="eRvDTjzg-Syd29gc3DkY-26" value="Baca Kelembaban" style="rounded=1;arcSize=40;strokeWidth=2" vertex="1" parent="1">
          <mxGeometry x="60" y="860" width="156" height="49" as="geometry" />
        </mxCell>
        <mxCell id="eRvDTjzg-Syd29gc3DkY-27" value="Baca Suhu" style="rounded=1;arcSize=40;strokeWidth=2" vertex="1" parent="1">
          <mxGeometry x="87" y="959" width="103" height="49" as="geometry" />
        </mxCell>
        <mxCell id="eRvDTjzg-Syd29gc3DkY-28" value="Apakah pembacaan gagal?" style="rhombus;strokeWidth=2;whiteSpace=wrap;" vertex="1" parent="1">
          <mxGeometry x="20" y="1058" width="237" height="237" as="geometry" />
        </mxCell>
        <mxCell id="eRvDTjzg-Syd29gc3DkY-29" value="Cetak Failed to read from DHT sensor!" style="rounded=1;arcSize=40;strokeWidth=2" vertex="1" parent="1">
          <mxGeometry x="108" y="1368" width="215" height="67" as="geometry" />
        </mxCell>
        <mxCell id="eRvDTjzg-Syd29gc3DkY-30" value="Cetak Humidity dan Temperature" style="rounded=1;arcSize=40;strokeWidth=2" vertex="1" parent="1">
          <mxGeometry x="373" y="1368" width="172" height="67" as="geometry" />
        </mxCell>
        <mxCell id="eRvDTjzg-Syd29gc3DkY-31" value="Tunggu 2 detik" style="rounded=1;arcSize=40;strokeWidth=2" vertex="1" parent="1">
          <mxGeometry x="451" y="1485" width="136" height="49" as="geometry" />
        </mxCell>
        <mxCell id="eRvDTjzg-Syd29gc3DkY-32" value="" style="curved=1;startArrow=none;endArrow=block;exitX=0.51;exitY=1;entryX=0.5;entryY=0;rounded=0;fontSize=12;startSize=8;endSize=8;" edge="1" parent="1" source="eRvDTjzg-Syd29gc3DkY-22" target="eRvDTjzg-Syd29gc3DkY-23">
          <mxGeometry relative="1" as="geometry">
            <Array as="points" />
          </mxGeometry>
        </mxCell>
        <mxCell id="eRvDTjzg-Syd29gc3DkY-33" value="" style="curved=1;startArrow=none;endArrow=block;exitX=0.5;exitY=1;entryX=0.5;entryY=0;rounded=0;fontSize=12;startSize=8;endSize=8;" edge="1" parent="1" source="eRvDTjzg-Syd29gc3DkY-23" target="eRvDTjzg-Syd29gc3DkY-24">
          <mxGeometry relative="1" as="geometry">
            <Array as="points" />
          </mxGeometry>
        </mxCell>
        <mxCell id="eRvDTjzg-Syd29gc3DkY-34" value="" style="curved=1;startArrow=none;endArrow=block;exitX=0.5;exitY=1;entryX=0.5;entryY=0;rounded=0;fontSize=12;startSize=8;endSize=8;" edge="1" parent="1" source="eRvDTjzg-Syd29gc3DkY-24" target="eRvDTjzg-Syd29gc3DkY-25">
          <mxGeometry relative="1" as="geometry">
            <Array as="points" />
          </mxGeometry>
        </mxCell>
        <mxCell id="eRvDTjzg-Syd29gc3DkY-35" value="" style="curved=1;startArrow=none;endArrow=block;exitX=0;exitY=0.69;entryX=0.5;entryY=0.01;rounded=0;fontSize=12;startSize=8;endSize=8;" edge="1" parent="1" source="eRvDTjzg-Syd29gc3DkY-25" target="eRvDTjzg-Syd29gc3DkY-26">
          <mxGeometry relative="1" as="geometry">
            <Array as="points">
              <mxPoint x="138" y="835" />
            </Array>
          </mxGeometry>
        </mxCell>
        <mxCell id="eRvDTjzg-Syd29gc3DkY-36" value="" style="curved=1;startArrow=none;endArrow=block;exitX=0.5;exitY=1.01;entryX=0.5;entryY=0.01;rounded=0;fontSize=12;startSize=8;endSize=8;" edge="1" parent="1" source="eRvDTjzg-Syd29gc3DkY-26" target="eRvDTjzg-Syd29gc3DkY-27">
          <mxGeometry relative="1" as="geometry">
            <Array as="points" />
          </mxGeometry>
        </mxCell>
        <mxCell id="eRvDTjzg-Syd29gc3DkY-37" value="" style="curved=1;startArrow=none;endArrow=block;exitX=0.5;exitY=1.01;entryX=0.5;entryY=0;rounded=0;fontSize=12;startSize=8;endSize=8;" edge="1" parent="1" source="eRvDTjzg-Syd29gc3DkY-27" target="eRvDTjzg-Syd29gc3DkY-28">
          <mxGeometry relative="1" as="geometry">
            <Array as="points" />
          </mxGeometry>
        </mxCell>
        <mxCell id="eRvDTjzg-Syd29gc3DkY-38" value="Ya" style="curved=1;startArrow=none;endArrow=block;exitX=0.5;exitY=1;entryX=0.33;entryY=0;rounded=0;fontSize=12;startSize=8;endSize=8;" edge="1" parent="1" source="eRvDTjzg-Syd29gc3DkY-28" target="eRvDTjzg-Syd29gc3DkY-29">
          <mxGeometry relative="1" as="geometry">
            <Array as="points">
              <mxPoint x="138" y="1332" />
            </Array>
          </mxGeometry>
        </mxCell>
        <mxCell id="eRvDTjzg-Syd29gc3DkY-39" value="" style="curved=1;startArrow=none;endArrow=block;exitX=0.72;exitY=0;entryX=0.5;entryY=1;rounded=0;fontSize=12;startSize=8;endSize=8;" edge="1" parent="1" source="eRvDTjzg-Syd29gc3DkY-29" target="eRvDTjzg-Syd29gc3DkY-25">
          <mxGeometry relative="1" as="geometry">
            <Array as="points">
              <mxPoint x="316" y="1332" />
            </Array>
          </mxGeometry>
        </mxCell>
        <mxCell id="eRvDTjzg-Syd29gc3DkY-40" value="Tidak" style="curved=1;startArrow=none;endArrow=block;exitX=1;exitY=0.74;entryX=0.5;entryY=0;rounded=0;fontSize=12;startSize=8;endSize=8;" edge="1" parent="1" source="eRvDTjzg-Syd29gc3DkY-28" target="eRvDTjzg-Syd29gc3DkY-30">
          <mxGeometry relative="1" as="geometry">
            <Array as="points">
              <mxPoint x="459" y="1332" />
            </Array>
          </mxGeometry>
        </mxCell>
        <mxCell id="eRvDTjzg-Syd29gc3DkY-41" value="" style="curved=1;startArrow=none;endArrow=block;exitX=0.5;exitY=1;entryX=0.28;entryY=0;rounded=0;fontSize=12;startSize=8;endSize=8;" edge="1" parent="1" source="eRvDTjzg-Syd29gc3DkY-30" target="eRvDTjzg-Syd29gc3DkY-31">
          <mxGeometry relative="1" as="geometry">
            <Array as="points">
              <mxPoint x="459" y="1460" />
            </Array>
          </mxGeometry>
        </mxCell>
        <mxCell id="eRvDTjzg-Syd29gc3DkY-42" value="" style="curved=1;startArrow=none;endArrow=block;exitX=0.72;exitY=0;entryX=1.01;entryY=0.63;rounded=0;fontSize=12;startSize=8;endSize=8;" edge="1" parent="1" source="eRvDTjzg-Syd29gc3DkY-31" target="eRvDTjzg-Syd29gc3DkY-25">
          <mxGeometry relative="1" as="geometry">
            <Array as="points">
              <mxPoint x="580" y="1460" />
              <mxPoint x="580" y="835" />
            </Array>
          </mxGeometry>
        </mxCell>
      </root>
    </mxGraphModel>
  </diagram>
  <diagram id="J1uG0B4viaiX-aqjHr5V" name="Page-7">
    <mxGraphModel dx="197" dy="476" grid="1" gridSize="10" guides="1" tooltips="1" connect="1" arrows="1" fold="1" page="1" pageScale="1" pageWidth="850" pageHeight="1100" math="0" shadow="0">
      <root>
        <mxCell id="0" />
        <mxCell id="1" parent="0" />
        <mxCell id="l7xlUDyPbfHz1fLwF6Gh-6" style="edgeStyle=orthogonalEdgeStyle;rounded=0;orthogonalLoop=1;jettySize=auto;html=1;exitX=0.5;exitY=1;exitDx=0;exitDy=0;entryX=0.5;entryY=0;entryDx=0;entryDy=0;" edge="1" parent="1" source="l7xlUDyPbfHz1fLwF6Gh-1" target="l7xlUDyPbfHz1fLwF6Gh-2">
          <mxGeometry relative="1" as="geometry" />
        </mxCell>
        <mxCell id="l7xlUDyPbfHz1fLwF6Gh-1" value="Start" style="ellipse;whiteSpace=wrap;html=1;" vertex="1" parent="1">
          <mxGeometry x="40" y="40" width="120" height="80" as="geometry" />
        </mxCell>
        <mxCell id="l7xlUDyPbfHz1fLwF6Gh-2" value="Inisialisasi Serial Monitor, sensor DHT, dan LED sebagai output." style="rounded=0;whiteSpace=wrap;html=1;" vertex="1" parent="1">
          <mxGeometry x="40" y="160" width="120" height="60" as="geometry" />
        </mxCell>
        <mxCell id="l7xlUDyPbfHz1fLwF6Gh-5" style="edgeStyle=orthogonalEdgeStyle;rounded=0;orthogonalLoop=1;jettySize=auto;html=1;exitX=1;exitY=0.5;exitDx=0;exitDy=0;entryX=1;entryY=0.5;entryDx=0;entryDy=0;" edge="1" parent="1" source="l7xlUDyPbfHz1fLwF6Gh-3" target="l7xlUDyPbfHz1fLwF6Gh-4">
          <mxGeometry relative="1" as="geometry" />
        </mxCell>
        <mxCell id="l7xlUDyPbfHz1fLwF6Gh-3" value="Loop" style="rounded=0;whiteSpace=wrap;html=1;" vertex="1" parent="1">
          <mxGeometry x="40" y="260" width="120" height="60" as="geometry" />
        </mxCell>
        <mxCell id="l7xlUDyPbfHz1fLwF6Gh-9" style="edgeStyle=orthogonalEdgeStyle;rounded=0;orthogonalLoop=1;jettySize=auto;html=1;exitX=0.5;exitY=1;exitDx=0;exitDy=0;entryX=0.5;entryY=0;entryDx=0;entryDy=0;" edge="1" parent="1" source="l7xlUDyPbfHz1fLwF6Gh-4" target="l7xlUDyPbfHz1fLwF6Gh-8">
          <mxGeometry relative="1" as="geometry" />
        </mxCell>
        <mxCell id="l7xlUDyPbfHz1fLwF6Gh-4" value="Baca Kelembaban dan Suhu" style="rounded=0;whiteSpace=wrap;html=1;" vertex="1" parent="1">
          <mxGeometry x="40" y="360" width="120" height="60" as="geometry" />
        </mxCell>
        <mxCell id="l7xlUDyPbfHz1fLwF6Gh-8" value="Sensor Gagal Membaca Data?" style="shape=parallelogram;perimeter=parallelogramPerimeter;whiteSpace=wrap;html=1;fixedSize=1;" vertex="1" parent="1">
          <mxGeometry x="40" y="470" width="120" height="60" as="geometry" />
        </mxCell>
      </root>
    </mxGraphModel>
  </diagram>
  <diagram id="t3LN_8-SiEhD4W1mIZ2W" name="Page-8">
    <mxGraphModel dx="880" dy="518" grid="0" gridSize="10" guides="1" tooltips="1" connect="1" arrows="1" fold="1" page="0" pageScale="1" pageWidth="850" pageHeight="1100" math="0" shadow="0">
      <root>
        <mxCell id="0" />
        <mxCell id="1" parent="0" />
      </root>
    </mxGraphModel>
  </diagram>
</mxfile>
